# xmcd
#
# Track frame offsets: 
#        150
#        2964
#        25584
#        48442
#        66719
#        90924
#        116067
#        136374
#        157547
#        183822
#        201017
#        223547
#        242762
#
# Disc length: 3427 seconds
#
# Revision: 1
# Processed by: cddbd v1.5.1PL2 Copyright (c) Steve Scherf et al.
# Submitted via: ExactAudioCopy v0.95b3
#
DISCID=a60d610d
DTITLE=Gato Barbieri - Che Corazon
DYEAR=1999
DGENRE=Jazz
TTITLE0=Introduction
TTITLE1=Cristiano
TTITLE2=I want you
TTITLE3=Seven Servants
TTITLE4=Blue Eyes
TTITLE5=Eclipse
TTITLE6=1812
TTITLE7=The woman on the Lake
TTITLE8=Rosa
TTITLE9=Sweet Glenda
TTITLE10=Encounter
TTITLE11=Auld lang syne
TTITLE12=Finale
EXTD=
EXTT0=
EXTT1=
EXTT2=
EXTT3=
EXTT4=
EXTT5=
EXTT6=
EXTT7=
EXTT8=
EXTT9=
EXTT10=
EXTT11=
EXTT12=
PLAYORDER=
